<mxfile host="Electron" modified="2024-02-09T08:42:53.840Z" agent="Mozilla/5.0 (Windows NT 10.0; Win64; x64) AppleWebKit/537.36 (KHTML, like Gecko) draw.io/23.0.2 Chrome/120.0.6099.109 Electron/28.1.0 Safari/537.36" etag="uF3oDtgDHOaoPwdoTfUa" version="23.0.2" type="device">
  <diagram name="Page-1" id="FkYoSr1TKQ3hoMXSStE2">
    <mxGraphModel dx="1290" dy="621" grid="1" gridSize="10" guides="1" tooltips="1" connect="1" arrows="1" fold="1" page="1" pageScale="1" pageWidth="827" pageHeight="1169" math="0" shadow="0">
      <root>
        <mxCell id="0" />
        <mxCell id="1" parent="0" />
        <mxCell id="-RTT7aDzXiRl8rfxtxoK-1" value="USER" style="rounded=0;whiteSpace=wrap;html=1;" parent="1" vertex="1">
          <mxGeometry x="440" y="400" width="80" height="40" as="geometry" />
        </mxCell>
        <mxCell id="2adWbE0rUEFOMJ6LFM2F-12" value="OWNS" style="rhombus;whiteSpace=wrap;html=1;" parent="1" vertex="1">
          <mxGeometry x="450" y="240" width="60" height="60" as="geometry" />
        </mxCell>
        <mxCell id="2adWbE0rUEFOMJ6LFM2F-13" value="views" style="rhombus;whiteSpace=wrap;html=1;rotation=-45;" parent="1" vertex="1">
          <mxGeometry x="620" y="243.54000000000002" width="70" height="60" as="geometry" />
        </mxCell>
        <mxCell id="2adWbE0rUEFOMJ6LFM2F-14" value="looks at" style="rhombus;whiteSpace=wrap;html=1;" parent="1" vertex="1">
          <mxGeometry x="270" y="390" width="90" height="60" as="geometry" />
        </mxCell>
        <mxCell id="2adWbE0rUEFOMJ6LFM2F-15" value="STAY" style="rhombus;whiteSpace=wrap;html=1;" parent="1" vertex="1">
          <mxGeometry x="450" y="524" width="60" height="60" as="geometry" />
        </mxCell>
        <mxCell id="2adWbE0rUEFOMJ6LFM2F-16" value="VISITS" style="rhombus;whiteSpace=wrap;html=1;" parent="1" vertex="1">
          <mxGeometry x="610" y="390" width="60" height="60" as="geometry" />
        </mxCell>
        <mxCell id="2adWbE0rUEFOMJ6LFM2F-17" value="WRITES" style="rhombus;whiteSpace=wrap;html=1;rotation=-45;" parent="1" vertex="1">
          <mxGeometry x="268.54" y="521.46" width="70" height="60" as="geometry" />
        </mxCell>
        <mxCell id="2adWbE0rUEFOMJ6LFM2F-18" value="BUYS" style="rhombus;whiteSpace=wrap;html=1;rotation=-45;" parent="1" vertex="1">
          <mxGeometry x="273.54" y="238.54" width="60" height="70" as="geometry" />
        </mxCell>
        <mxCell id="2adWbE0rUEFOMJ6LFM2F-19" value="VISITS" style="rhombus;whiteSpace=wrap;html=1;rotation=-45;" parent="1" vertex="1">
          <mxGeometry x="608.59" y="512.05" width="60" height="74" as="geometry" />
        </mxCell>
        <mxCell id="2adWbE0rUEFOMJ6LFM2F-20" value="EVENTS" style="rounded=0;whiteSpace=wrap;html=1;" parent="1" vertex="1">
          <mxGeometry x="140" y="400" width="80" height="40" as="geometry" />
        </mxCell>
        <mxCell id="2adWbE0rUEFOMJ6LFM2F-21" value="PETSTORE" style="rounded=0;whiteSpace=wrap;html=1;" parent="1" vertex="1">
          <mxGeometry x="140" y="160" width="80" height="40" as="geometry" />
        </mxCell>
        <mxCell id="2adWbE0rUEFOMJ6LFM2F-22" value="PET" style="rounded=0;whiteSpace=wrap;html=1;" parent="1" vertex="1">
          <mxGeometry x="440" y="160" width="80" height="40" as="geometry" />
        </mxCell>
        <mxCell id="2adWbE0rUEFOMJ6LFM2F-23" value="ACCOMMODATION" style="rounded=0;whiteSpace=wrap;html=1;" parent="1" vertex="1">
          <mxGeometry x="425" y="626.05" width="110" height="40" as="geometry" />
        </mxCell>
        <mxCell id="2adWbE0rUEFOMJ6LFM2F-24" value="CAFES" style="rounded=0;whiteSpace=wrap;html=1;" parent="1" vertex="1">
          <mxGeometry x="730" y="620" width="80" height="40" as="geometry" />
        </mxCell>
        <mxCell id="2adWbE0rUEFOMJ6LFM2F-25" value="HOSPITAL" style="rounded=0;whiteSpace=wrap;html=1;" parent="1" vertex="1">
          <mxGeometry x="730" y="400" width="80" height="40" as="geometry" />
        </mxCell>
        <mxCell id="2adWbE0rUEFOMJ6LFM2F-26" value="VIDEOS" style="rounded=0;whiteSpace=wrap;html=1;" parent="1" vertex="1">
          <mxGeometry x="730" y="160" width="80" height="40" as="geometry" />
        </mxCell>
        <mxCell id="2adWbE0rUEFOMJ6LFM2F-27" value="BLOGS" style="rounded=0;whiteSpace=wrap;html=1;" parent="1" vertex="1">
          <mxGeometry x="140" y="620" width="80" height="40" as="geometry" />
        </mxCell>
        <mxCell id="2adWbE0rUEFOMJ6LFM2F-28" value="" style="endArrow=none;html=1;rounded=0;entryX=0;entryY=0.5;entryDx=0;entryDy=0;" parent="1" target="2adWbE0rUEFOMJ6LFM2F-16" edge="1">
          <mxGeometry width="50" height="50" relative="1" as="geometry">
            <mxPoint x="520" y="420" as="sourcePoint" />
            <mxPoint x="570" y="370" as="targetPoint" />
          </mxGeometry>
        </mxCell>
        <mxCell id="2adWbE0rUEFOMJ6LFM2F-30" value="" style="endArrow=none;html=1;rounded=0;" parent="1" edge="1">
          <mxGeometry width="50" height="50" relative="1" as="geometry">
            <mxPoint x="670" y="419.52" as="sourcePoint" />
            <mxPoint x="730" y="420" as="targetPoint" />
          </mxGeometry>
        </mxCell>
        <mxCell id="2adWbE0rUEFOMJ6LFM2F-31" value="" style="endArrow=none;html=1;rounded=0;entryX=0.5;entryY=0;entryDx=0;entryDy=0;exitX=1;exitY=1;exitDx=0;exitDy=0;" parent="1" source="-RTT7aDzXiRl8rfxtxoK-1" target="2adWbE0rUEFOMJ6LFM2F-19" edge="1">
          <mxGeometry width="50" height="50" relative="1" as="geometry">
            <mxPoint x="540" y="440" as="sourcePoint" />
            <mxPoint x="630" y="440" as="targetPoint" />
          </mxGeometry>
        </mxCell>
        <mxCell id="2adWbE0rUEFOMJ6LFM2F-32" value="" style="endArrow=none;html=1;rounded=0;entryX=0;entryY=1;entryDx=0;entryDy=0;exitX=1;exitY=0.5;exitDx=0;exitDy=0;" parent="1" source="2adWbE0rUEFOMJ6LFM2F-17" target="-RTT7aDzXiRl8rfxtxoK-1" edge="1">
          <mxGeometry width="50" height="50" relative="1" as="geometry">
            <mxPoint x="369" y="440" as="sourcePoint" />
            <mxPoint x="459" y="440" as="targetPoint" />
          </mxGeometry>
        </mxCell>
        <mxCell id="2adWbE0rUEFOMJ6LFM2F-33" value="" style="endArrow=none;html=1;rounded=0;entryX=0.5;entryY=1;entryDx=0;entryDy=0;exitX=0.5;exitY=0;exitDx=0;exitDy=0;" parent="1" source="2adWbE0rUEFOMJ6LFM2F-15" target="-RTT7aDzXiRl8rfxtxoK-1" edge="1">
          <mxGeometry width="50" height="50" relative="1" as="geometry">
            <mxPoint x="450" y="480" as="sourcePoint" />
            <mxPoint x="540" y="480" as="targetPoint" />
          </mxGeometry>
        </mxCell>
        <mxCell id="2adWbE0rUEFOMJ6LFM2F-34" value="" style="endArrow=none;html=1;rounded=0;entryX=0;entryY=0.5;entryDx=0;entryDy=0;" parent="1" target="2adWbE0rUEFOMJ6LFM2F-13" edge="1">
          <mxGeometry width="50" height="50" relative="1" as="geometry">
            <mxPoint x="520" y="400" as="sourcePoint" />
            <mxPoint x="610" y="400" as="targetPoint" />
          </mxGeometry>
        </mxCell>
        <mxCell id="2adWbE0rUEFOMJ6LFM2F-35" value="" style="endArrow=none;html=1;rounded=0;entryX=0;entryY=0;entryDx=0;entryDy=0;exitX=0.5;exitY=1;exitDx=0;exitDy=0;" parent="1" source="2adWbE0rUEFOMJ6LFM2F-18" target="-RTT7aDzXiRl8rfxtxoK-1" edge="1">
          <mxGeometry width="50" height="50" relative="1" as="geometry">
            <mxPoint x="324" y="300" as="sourcePoint" />
            <mxPoint x="414" y="300" as="targetPoint" />
          </mxGeometry>
        </mxCell>
        <mxCell id="2adWbE0rUEFOMJ6LFM2F-36" value="" style="endArrow=none;html=1;rounded=0;entryX=0;entryY=0.5;entryDx=0;entryDy=0;" parent="1" target="-RTT7aDzXiRl8rfxtxoK-1" edge="1">
          <mxGeometry width="50" height="50" relative="1" as="geometry">
            <mxPoint x="360" y="420" as="sourcePoint" />
            <mxPoint x="420" y="419.57" as="targetPoint" />
          </mxGeometry>
        </mxCell>
        <mxCell id="2adWbE0rUEFOMJ6LFM2F-37" value="" style="endArrow=none;html=1;rounded=0;entryX=0.5;entryY=0;entryDx=0;entryDy=0;exitX=0.5;exitY=1;exitDx=0;exitDy=0;" parent="1" source="2adWbE0rUEFOMJ6LFM2F-12" target="-RTT7aDzXiRl8rfxtxoK-1" edge="1">
          <mxGeometry width="50" height="50" relative="1" as="geometry">
            <mxPoint x="450" y="340" as="sourcePoint" />
            <mxPoint x="540" y="340" as="targetPoint" />
          </mxGeometry>
        </mxCell>
        <mxCell id="2adWbE0rUEFOMJ6LFM2F-38" value="" style="endArrow=none;html=1;rounded=0;entryX=0;entryY=0.5;entryDx=0;entryDy=0;exitX=1;exitY=0;exitDx=0;exitDy=0;" parent="1" source="2adWbE0rUEFOMJ6LFM2F-27" target="2adWbE0rUEFOMJ6LFM2F-17" edge="1">
          <mxGeometry width="50" height="50" relative="1" as="geometry">
            <mxPoint x="180" y="590" as="sourcePoint" />
            <mxPoint x="270" y="590" as="targetPoint" />
          </mxGeometry>
        </mxCell>
        <mxCell id="2adWbE0rUEFOMJ6LFM2F-39" value="" style="endArrow=none;html=1;rounded=0;entryX=0.5;entryY=0;entryDx=0;entryDy=0;exitX=0.5;exitY=1;exitDx=0;exitDy=0;" parent="1" source="2adWbE0rUEFOMJ6LFM2F-15" target="2adWbE0rUEFOMJ6LFM2F-23" edge="1">
          <mxGeometry width="50" height="50" relative="1" as="geometry">
            <mxPoint x="480" y="589.13" as="sourcePoint" />
            <mxPoint x="570" y="589.13" as="targetPoint" />
          </mxGeometry>
        </mxCell>
        <mxCell id="2adWbE0rUEFOMJ6LFM2F-40" value="" style="endArrow=none;html=1;rounded=0;entryX=0;entryY=0;entryDx=0;entryDy=0;exitX=0.5;exitY=1;exitDx=0;exitDy=0;" parent="1" source="2adWbE0rUEFOMJ6LFM2F-19" target="2adWbE0rUEFOMJ6LFM2F-24" edge="1">
          <mxGeometry width="50" height="50" relative="1" as="geometry">
            <mxPoint x="660" y="600" as="sourcePoint" />
            <mxPoint x="750" y="600" as="targetPoint" />
          </mxGeometry>
        </mxCell>
        <mxCell id="2adWbE0rUEFOMJ6LFM2F-41" value="" style="endArrow=none;html=1;rounded=0;" parent="1" edge="1">
          <mxGeometry width="50" height="50" relative="1" as="geometry">
            <mxPoint x="220" y="419.57" as="sourcePoint" />
            <mxPoint x="270" y="420" as="targetPoint" />
          </mxGeometry>
        </mxCell>
        <mxCell id="2adWbE0rUEFOMJ6LFM2F-42" value="" style="endArrow=none;html=1;rounded=0;entryX=0;entryY=1;entryDx=0;entryDy=0;exitX=1;exitY=0.5;exitDx=0;exitDy=0;" parent="1" source="2adWbE0rUEFOMJ6LFM2F-13" target="2adWbE0rUEFOMJ6LFM2F-26" edge="1">
          <mxGeometry width="50" height="50" relative="1" as="geometry">
            <mxPoint x="670" y="250" as="sourcePoint" />
            <mxPoint x="750" y="250" as="targetPoint" />
          </mxGeometry>
        </mxCell>
        <mxCell id="2adWbE0rUEFOMJ6LFM2F-43" value="" style="endArrow=none;html=1;rounded=0;entryX=0.5;entryY=0;entryDx=0;entryDy=0;exitX=0.5;exitY=1;exitDx=0;exitDy=0;" parent="1" source="2adWbE0rUEFOMJ6LFM2F-22" target="2adWbE0rUEFOMJ6LFM2F-12" edge="1">
          <mxGeometry width="50" height="50" relative="1" as="geometry">
            <mxPoint x="500" y="300" as="sourcePoint" />
            <mxPoint x="590" y="300" as="targetPoint" />
          </mxGeometry>
        </mxCell>
        <mxCell id="2adWbE0rUEFOMJ6LFM2F-44" value="" style="endArrow=none;html=1;rounded=0;entryX=0.5;entryY=0;entryDx=0;entryDy=0;exitX=1;exitY=1;exitDx=0;exitDy=0;" parent="1" source="2adWbE0rUEFOMJ6LFM2F-21" target="2adWbE0rUEFOMJ6LFM2F-18" edge="1">
          <mxGeometry width="50" height="50" relative="1" as="geometry">
            <mxPoint x="340" y="230" as="sourcePoint" />
            <mxPoint x="430" y="230" as="targetPoint" />
          </mxGeometry>
        </mxCell>
        <mxCell id="2adWbE0rUEFOMJ6LFM2F-51" value="NAME" style="ellipse;whiteSpace=wrap;html=1;" parent="1" vertex="1">
          <mxGeometry x="535" y="250" width="93.75" height="40" as="geometry" />
        </mxCell>
        <mxCell id="2adWbE0rUEFOMJ6LFM2F-52" value="PETID" style="ellipse;whiteSpace=wrap;html=1;" parent="1" vertex="1">
          <mxGeometry x="333.54" y="80" width="93.75" height="40" as="geometry" />
        </mxCell>
        <mxCell id="2adWbE0rUEFOMJ6LFM2F-53" value="" style="endArrow=none;html=1;rounded=0;exitX=0.5;exitY=0;exitDx=0;exitDy=0;entryX=0.66;entryY=0.951;entryDx=0;entryDy=0;entryPerimeter=0;" parent="1" target="2adWbE0rUEFOMJ6LFM2F-52" edge="1">
          <mxGeometry width="50" height="50" relative="1" as="geometry">
            <mxPoint x="439.46" y="160" as="sourcePoint" />
            <mxPoint x="439.46" y="100" as="targetPoint" />
          </mxGeometry>
        </mxCell>
        <mxCell id="2adWbE0rUEFOMJ6LFM2F-54" value="TYPE" style="ellipse;whiteSpace=wrap;html=1;" parent="1" vertex="1">
          <mxGeometry x="550" y="190" width="90" height="40" as="geometry" />
        </mxCell>
        <mxCell id="2adWbE0rUEFOMJ6LFM2F-55" value="BIO" style="ellipse;whiteSpace=wrap;html=1;" parent="1" vertex="1">
          <mxGeometry x="300" y="140" width="90" height="40" as="geometry" />
        </mxCell>
        <mxCell id="2adWbE0rUEFOMJ6LFM2F-56" value="BREED" style="ellipse;whiteSpace=wrap;html=1;" parent="1" vertex="1">
          <mxGeometry x="578.59" y="130" width="90" height="40" as="geometry" />
        </mxCell>
        <mxCell id="2adWbE0rUEFOMJ6LFM2F-57" value="" style="endArrow=none;html=1;rounded=0;exitX=1;exitY=0.5;exitDx=0;exitDy=0;entryX=0.382;entryY=1.007;entryDx=0;entryDy=0;entryPerimeter=0;" parent="1" source="2adWbE0rUEFOMJ6LFM2F-55" edge="1">
          <mxGeometry width="50" height="50" relative="1" as="geometry">
            <mxPoint x="410" y="211" as="sourcePoint" />
            <mxPoint x="440" y="170" as="targetPoint" />
          </mxGeometry>
        </mxCell>
        <mxCell id="2adWbE0rUEFOMJ6LFM2F-58" value="" style="endArrow=none;html=1;rounded=0;exitX=0.006;exitY=0.447;exitDx=0;exitDy=0;exitPerimeter=0;entryX=0.75;entryY=1;entryDx=0;entryDy=0;" parent="1" source="2adWbE0rUEFOMJ6LFM2F-54" edge="1">
          <mxGeometry width="50" height="50" relative="1" as="geometry">
            <mxPoint x="536" y="238.54" as="sourcePoint" />
            <mxPoint x="520" y="197.54" as="targetPoint" />
          </mxGeometry>
        </mxCell>
        <mxCell id="2adWbE0rUEFOMJ6LFM2F-59" value="" style="endArrow=none;html=1;rounded=0;exitX=0;exitY=0.5;exitDx=0;exitDy=0;entryX=1;entryY=1;entryDx=0;entryDy=0;" parent="1" source="2adWbE0rUEFOMJ6LFM2F-56" edge="1">
          <mxGeometry width="50" height="50" relative="1" as="geometry">
            <mxPoint x="546" y="180" as="sourcePoint" />
            <mxPoint x="520" y="169" as="targetPoint" />
          </mxGeometry>
        </mxCell>
        <mxCell id="2adWbE0rUEFOMJ6LFM2F-64" value="URL" style="ellipse;whiteSpace=wrap;html=1;" parent="1" vertex="1">
          <mxGeometry x="827" y="210" width="90" height="40" as="geometry" />
        </mxCell>
        <mxCell id="2adWbE0rUEFOMJ6LFM2F-65" value="VIDEOID" style="ellipse;whiteSpace=wrap;html=1;" parent="1" vertex="1">
          <mxGeometry x="827" y="100" width="90" height="40" as="geometry" />
        </mxCell>
        <mxCell id="_bQfAB4FE8FY6_FckcCM-1" value="TITLE" style="ellipse;whiteSpace=wrap;html=1;" parent="1" vertex="1">
          <mxGeometry x="720" y="230" width="90" height="40" as="geometry" />
        </mxCell>
        <mxCell id="_bQfAB4FE8FY6_FckcCM-5" value="" style="endArrow=none;html=1;rounded=0;entryX=0.25;entryY=1;entryDx=0;entryDy=0;exitX=0.419;exitY=0.026;exitDx=0;exitDy=0;exitPerimeter=0;" parent="1" source="_bQfAB4FE8FY6_FckcCM-1" target="2adWbE0rUEFOMJ6LFM2F-26" edge="1">
          <mxGeometry width="50" height="50" relative="1" as="geometry">
            <mxPoint x="790" y="230" as="sourcePoint" />
            <mxPoint x="767" y="200" as="targetPoint" />
          </mxGeometry>
        </mxCell>
        <mxCell id="_bQfAB4FE8FY6_FckcCM-6" value="" style="endArrow=none;html=1;rounded=0;entryX=0.5;entryY=1;entryDx=0;entryDy=0;exitX=0;exitY=0.5;exitDx=0;exitDy=0;" parent="1" source="2adWbE0rUEFOMJ6LFM2F-64" edge="1">
          <mxGeometry width="50" height="50" relative="1" as="geometry">
            <mxPoint x="833" y="228.54" as="sourcePoint" />
            <mxPoint x="810" y="198.54" as="targetPoint" />
          </mxGeometry>
        </mxCell>
        <mxCell id="_bQfAB4FE8FY6_FckcCM-7" value="" style="endArrow=none;html=1;rounded=0;entryX=0.5;entryY=1;entryDx=0;entryDy=0;exitX=0;exitY=1;exitDx=0;exitDy=0;" parent="1" source="2adWbE0rUEFOMJ6LFM2F-65" edge="1">
          <mxGeometry width="50" height="50" relative="1" as="geometry">
            <mxPoint x="833" y="190" as="sourcePoint" />
            <mxPoint x="810" y="160" as="targetPoint" />
          </mxGeometry>
        </mxCell>
        <mxCell id="_bQfAB4FE8FY6_FckcCM-8" value="LOCATION" style="ellipse;whiteSpace=wrap;html=1;" parent="1" vertex="1">
          <mxGeometry x="840" y="450.00000000000006" width="90" height="40" as="geometry" />
        </mxCell>
        <mxCell id="_bQfAB4FE8FY6_FckcCM-9" value="Description" style="ellipse;whiteSpace=wrap;html=1;" parent="1" vertex="1">
          <mxGeometry x="725" y="470.0000000000001" width="90" height="40" as="geometry" />
        </mxCell>
        <mxCell id="_bQfAB4FE8FY6_FckcCM-10" value="" style="endArrow=none;html=1;rounded=0;entryX=0.5;entryY=1;entryDx=0;entryDy=0;" parent="1" source="_bQfAB4FE8FY6_FckcCM-9" target="2adWbE0rUEFOMJ6LFM2F-25" edge="1">
          <mxGeometry width="50" height="50" relative="1" as="geometry">
            <mxPoint x="747" y="488.00000000000006" as="sourcePoint" />
            <mxPoint x="751" y="440.00000000000006" as="targetPoint" />
          </mxGeometry>
        </mxCell>
        <mxCell id="_bQfAB4FE8FY6_FckcCM-11" value="Name" style="ellipse;whiteSpace=wrap;html=1;" parent="1" vertex="1">
          <mxGeometry x="720" y="330.00000000000006" width="90" height="40" as="geometry" />
        </mxCell>
        <mxCell id="_bQfAB4FE8FY6_FckcCM-12" value="HOSPITALID" style="ellipse;whiteSpace=wrap;html=1;" parent="1" vertex="1">
          <mxGeometry x="840" y="350.00000000000006" width="90" height="40" as="geometry" />
        </mxCell>
        <mxCell id="_bQfAB4FE8FY6_FckcCM-14" value="" style="endArrow=none;html=1;rounded=0;entryX=0.544;entryY=0.979;entryDx=0;entryDy=0;entryPerimeter=0;exitX=0.5;exitY=0;exitDx=0;exitDy=0;" parent="1" source="2adWbE0rUEFOMJ6LFM2F-25" target="_bQfAB4FE8FY6_FckcCM-11" edge="1">
          <mxGeometry width="50" height="50" relative="1" as="geometry">
            <mxPoint x="745" y="400" as="sourcePoint" />
            <mxPoint x="795" y="350" as="targetPoint" />
          </mxGeometry>
        </mxCell>
        <mxCell id="_bQfAB4FE8FY6_FckcCM-15" value="" style="endArrow=none;html=1;rounded=0;entryX=0;entryY=1;entryDx=0;entryDy=0;" parent="1" target="_bQfAB4FE8FY6_FckcCM-12" edge="1">
          <mxGeometry width="50" height="50" relative="1" as="geometry">
            <mxPoint x="810" y="401" as="sourcePoint" />
            <mxPoint x="804" y="360" as="targetPoint" />
          </mxGeometry>
        </mxCell>
        <mxCell id="_bQfAB4FE8FY6_FckcCM-16" value="" style="endArrow=none;html=1;rounded=0;entryX=0.544;entryY=0.979;entryDx=0;entryDy=0;entryPerimeter=0;exitX=0.011;exitY=0.368;exitDx=0;exitDy=0;exitPerimeter=0;" parent="1" source="_bQfAB4FE8FY6_FckcCM-8" edge="1">
          <mxGeometry width="50" height="50" relative="1" as="geometry">
            <mxPoint x="816" y="481" as="sourcePoint" />
            <mxPoint x="810" y="440" as="targetPoint" />
          </mxGeometry>
        </mxCell>
        <mxCell id="_bQfAB4FE8FY6_FckcCM-19" value="DESCRIPTION" style="ellipse;whiteSpace=wrap;html=1;" parent="1" vertex="1">
          <mxGeometry x="712" y="700.0000000000001" width="90" height="40" as="geometry" />
        </mxCell>
        <mxCell id="_bQfAB4FE8FY6_FckcCM-20" value="LOCATIONID" style="ellipse;whiteSpace=wrap;html=1;" parent="1" vertex="1">
          <mxGeometry x="840" y="565.0000000000001" width="90" height="40" as="geometry" />
        </mxCell>
        <mxCell id="_bQfAB4FE8FY6_FckcCM-21" value="CAFEID" style="ellipse;whiteSpace=wrap;html=1;" parent="1" vertex="1">
          <mxGeometry x="725" y="546.0500000000001" width="90" height="40" as="geometry" />
        </mxCell>
        <mxCell id="_bQfAB4FE8FY6_FckcCM-22" value="NAME" style="ellipse;whiteSpace=wrap;html=1;" parent="1" vertex="1">
          <mxGeometry x="880" y="620.0000000000001" width="90" height="40" as="geometry" />
        </mxCell>
        <mxCell id="_bQfAB4FE8FY6_FckcCM-23" value="" style="endArrow=none;html=1;rounded=0;entryX=1;entryY=0.5;entryDx=0;entryDy=0;exitX=0;exitY=0.5;exitDx=0;exitDy=0;" parent="1" source="_bQfAB4FE8FY6_FckcCM-22" target="2adWbE0rUEFOMJ6LFM2F-24" edge="1">
          <mxGeometry width="50" height="50" relative="1" as="geometry">
            <mxPoint x="840" y="660" as="sourcePoint" />
            <mxPoint x="809" y="635" as="targetPoint" />
          </mxGeometry>
        </mxCell>
        <mxCell id="_bQfAB4FE8FY6_FckcCM-24" value="" style="endArrow=none;html=1;rounded=0;entryX=0.544;entryY=0.979;entryDx=0;entryDy=0;entryPerimeter=0;exitX=0.104;exitY=0.821;exitDx=0;exitDy=0;exitPerimeter=0;" parent="1" source="_bQfAB4FE8FY6_FckcCM-20" edge="1">
          <mxGeometry width="50" height="50" relative="1" as="geometry">
            <mxPoint x="840" y="645" as="sourcePoint" />
            <mxPoint x="809" y="620" as="targetPoint" />
          </mxGeometry>
        </mxCell>
        <mxCell id="_bQfAB4FE8FY6_FckcCM-26" value="" style="endArrow=none;html=1;rounded=0;entryX=0.441;entryY=0.986;entryDx=0;entryDy=0;entryPerimeter=0;exitX=0.5;exitY=0;exitDx=0;exitDy=0;" parent="1" source="2adWbE0rUEFOMJ6LFM2F-24" target="_bQfAB4FE8FY6_FckcCM-21" edge="1">
          <mxGeometry width="50" height="50" relative="1" as="geometry">
            <mxPoint x="802" y="611.05" as="sourcePoint" />
            <mxPoint x="771" y="586.05" as="targetPoint" />
          </mxGeometry>
        </mxCell>
        <mxCell id="_bQfAB4FE8FY6_FckcCM-27" value="" style="endArrow=none;html=1;rounded=0;entryX=0.544;entryY=0.979;entryDx=0;entryDy=0;entryPerimeter=0;exitX=0.5;exitY=0;exitDx=0;exitDy=0;" parent="1" source="_bQfAB4FE8FY6_FckcCM-19" edge="1">
          <mxGeometry width="50" height="50" relative="1" as="geometry">
            <mxPoint x="797.5" y="685" as="sourcePoint" />
            <mxPoint x="766.5" y="660" as="targetPoint" />
          </mxGeometry>
        </mxCell>
        <mxCell id="_bQfAB4FE8FY6_FckcCM-28" value="ACCOMMDATIONID" style="ellipse;whiteSpace=wrap;html=1;" parent="1" vertex="1">
          <mxGeometry x="418.75" y="720" width="122.5" height="40" as="geometry" />
        </mxCell>
        <mxCell id="_bQfAB4FE8FY6_FckcCM-29" value="LOCATIONID" style="ellipse;whiteSpace=wrap;html=1;" parent="1" vertex="1">
          <mxGeometry x="560" y="600.0000000000001" width="90" height="40" as="geometry" />
        </mxCell>
        <mxCell id="_bQfAB4FE8FY6_FckcCM-30" value="NAME" style="ellipse;whiteSpace=wrap;html=1;" parent="1" vertex="1">
          <mxGeometry x="550" y="680.0000000000001" width="90" height="40" as="geometry" />
        </mxCell>
        <mxCell id="_bQfAB4FE8FY6_FckcCM-31" value="" style="endArrow=none;html=1;rounded=0;entryX=0.5;entryY=1;entryDx=0;entryDy=0;exitX=0.5;exitY=0;exitDx=0;exitDy=0;" parent="1" source="_bQfAB4FE8FY6_FckcCM-28" target="2adWbE0rUEFOMJ6LFM2F-23" edge="1">
          <mxGeometry width="50" height="50" relative="1" as="geometry">
            <mxPoint x="520" y="710" as="sourcePoint" />
            <mxPoint x="471" y="755" as="targetPoint" />
          </mxGeometry>
        </mxCell>
        <mxCell id="_bQfAB4FE8FY6_FckcCM-32" value="" style="endArrow=none;html=1;rounded=0;entryX=1;entryY=1;entryDx=0;entryDy=0;exitX=0.066;exitY=0.262;exitDx=0;exitDy=0;exitPerimeter=0;" parent="1" source="_bQfAB4FE8FY6_FckcCM-30" target="2adWbE0rUEFOMJ6LFM2F-23" edge="1">
          <mxGeometry width="50" height="50" relative="1" as="geometry">
            <mxPoint x="570" y="650" as="sourcePoint" />
            <mxPoint x="470" y="735" as="targetPoint" />
          </mxGeometry>
        </mxCell>
        <mxCell id="_bQfAB4FE8FY6_FckcCM-33" value="" style="endArrow=none;html=1;rounded=0;entryX=1;entryY=0;entryDx=0;entryDy=0;exitX=0.071;exitY=0.446;exitDx=0;exitDy=0;exitPerimeter=0;" parent="1" edge="1">
          <mxGeometry width="50" height="50" relative="1" as="geometry">
            <mxPoint x="455" y="560.93" as="sourcePoint" />
            <mxPoint x="422.48885824875094" y="559.996402567522" as="targetPoint" />
          </mxGeometry>
        </mxCell>
        <mxCell id="_bQfAB4FE8FY6_FckcCM-34" value="RATING" style="ellipse;whiteSpace=wrap;html=1;" parent="1" vertex="1">
          <mxGeometry x="333.54" y="541.46" width="90" height="40" as="geometry" />
        </mxCell>
        <mxCell id="_bQfAB4FE8FY6_FckcCM-35" value="DESCRIPTION" style="ellipse;whiteSpace=wrap;html=1;" parent="1" vertex="1">
          <mxGeometry x="310" y="590" width="90" height="40" as="geometry" />
        </mxCell>
        <mxCell id="_bQfAB4FE8FY6_FckcCM-36" value="" style="endArrow=none;html=1;rounded=0;exitX=0;exitY=0;exitDx=0;exitDy=0;entryX=0.965;entryY=0.703;entryDx=0;entryDy=0;entryPerimeter=0;" parent="1" source="2adWbE0rUEFOMJ6LFM2F-23" target="_bQfAB4FE8FY6_FckcCM-35" edge="1">
          <mxGeometry width="50" height="50" relative="1" as="geometry">
            <mxPoint x="440" y="610" as="sourcePoint" />
            <mxPoint x="490" y="560" as="targetPoint" />
          </mxGeometry>
        </mxCell>
        <mxCell id="_bQfAB4FE8FY6_FckcCM-37" value="" style="endArrow=none;html=1;rounded=0;exitX=1;exitY=0;exitDx=0;exitDy=0;entryX=0;entryY=0.5;entryDx=0;entryDy=0;" parent="1" source="2adWbE0rUEFOMJ6LFM2F-23" target="_bQfAB4FE8FY6_FckcCM-29" edge="1">
          <mxGeometry width="50" height="50" relative="1" as="geometry">
            <mxPoint x="440" y="610" as="sourcePoint" />
            <mxPoint x="490" y="560" as="targetPoint" />
          </mxGeometry>
        </mxCell>
        <mxCell id="_bQfAB4FE8FY6_FckcCM-40" value="PETID" style="ellipse;whiteSpace=wrap;html=1;" parent="1" vertex="1">
          <mxGeometry x="60.00000000000002" y="90" width="93.75" height="40" as="geometry" />
        </mxCell>
        <mxCell id="_bQfAB4FE8FY6_FckcCM-41" value="NAME" style="ellipse;whiteSpace=wrap;html=1;" parent="1" vertex="1">
          <mxGeometry x="10" y="150" width="90" height="40" as="geometry" />
        </mxCell>
        <mxCell id="_bQfAB4FE8FY6_FckcCM-42" value="LOCATIONID" style="ellipse;whiteSpace=wrap;html=1;" parent="1" vertex="1">
          <mxGeometry x="40.77" y="220" width="90" height="40" as="geometry" />
        </mxCell>
        <mxCell id="_bQfAB4FE8FY6_FckcCM-43" value="EMAILID" style="ellipse;whiteSpace=wrap;html=1;" parent="1" vertex="1">
          <mxGeometry x="46.25000000000002" y="331.46" width="93.75" height="40" as="geometry" />
        </mxCell>
        <mxCell id="_bQfAB4FE8FY6_FckcCM-44" value="DATE" style="ellipse;whiteSpace=wrap;html=1;" parent="1" vertex="1">
          <mxGeometry x="12.71" y="391.46" width="90" height="40" as="geometry" />
        </mxCell>
        <mxCell id="_bQfAB4FE8FY6_FckcCM-45" value="LOCATION" style="ellipse;whiteSpace=wrap;html=1;" parent="1" vertex="1">
          <mxGeometry x="46.25" y="459.99999999999994" width="90" height="40" as="geometry" />
        </mxCell>
        <mxCell id="_bQfAB4FE8FY6_FckcCM-46" value="BLOGID" style="ellipse;whiteSpace=wrap;html=1;" parent="1" vertex="1">
          <mxGeometry x="50.31000000000002" y="560" width="93.75" height="40" as="geometry" />
        </mxCell>
        <mxCell id="_bQfAB4FE8FY6_FckcCM-47" value="TITLE" style="ellipse;whiteSpace=wrap;html=1;" parent="1" vertex="1">
          <mxGeometry x="12.71" y="620" width="90" height="40" as="geometry" />
        </mxCell>
        <mxCell id="_bQfAB4FE8FY6_FckcCM-48" value="CONTENT" style="ellipse;whiteSpace=wrap;html=1;" parent="1" vertex="1">
          <mxGeometry x="46.25" y="680" width="90" height="40" as="geometry" />
        </mxCell>
        <mxCell id="_bQfAB4FE8FY6_FckcCM-49" value="" style="endArrow=none;html=1;rounded=0;entryX=1;entryY=0;entryDx=0;entryDy=0;exitX=1;exitY=1;exitDx=0;exitDy=0;" parent="1" target="_bQfAB4FE8FY6_FckcCM-42" edge="1">
          <mxGeometry width="50" height="50" relative="1" as="geometry">
            <mxPoint x="140" y="200" as="sourcePoint" />
            <mxPoint x="199" y="249" as="targetPoint" />
          </mxGeometry>
        </mxCell>
        <mxCell id="_bQfAB4FE8FY6_FckcCM-50" value="" style="endArrow=none;html=1;rounded=0;entryX=1;entryY=0.5;entryDx=0;entryDy=0;exitX=1;exitY=1;exitDx=0;exitDy=0;" parent="1" target="_bQfAB4FE8FY6_FckcCM-41" edge="1">
          <mxGeometry width="50" height="50" relative="1" as="geometry">
            <mxPoint x="140" y="176" as="sourcePoint" />
            <mxPoint x="121" y="190" as="targetPoint" />
          </mxGeometry>
        </mxCell>
        <mxCell id="_bQfAB4FE8FY6_FckcCM-51" value="" style="endArrow=none;html=1;rounded=0;entryX=1;entryY=1;entryDx=0;entryDy=0;exitX=1;exitY=1;exitDx=0;exitDy=0;" parent="1" target="_bQfAB4FE8FY6_FckcCM-40" edge="1">
          <mxGeometry width="50" height="50" relative="1" as="geometry">
            <mxPoint x="153.75" y="160" as="sourcePoint" />
            <mxPoint x="120.75" y="154" as="targetPoint" />
          </mxGeometry>
        </mxCell>
        <mxCell id="_bQfAB4FE8FY6_FckcCM-52" value="RATING" style="ellipse;whiteSpace=wrap;html=1;" parent="1" vertex="1">
          <mxGeometry x="160" y="249.99999999999997" width="90" height="40" as="geometry" />
        </mxCell>
        <mxCell id="_bQfAB4FE8FY6_FckcCM-53" value="" style="endArrow=none;html=1;rounded=0;entryX=1;entryY=0.5;entryDx=0;entryDy=0;exitX=0;exitY=0;exitDx=0;exitDy=0;" parent="1" source="2adWbE0rUEFOMJ6LFM2F-18" target="_bQfAB4FE8FY6_FckcCM-52" edge="1">
          <mxGeometry width="50" height="50" relative="1" as="geometry">
            <mxPoint x="199.23" y="200" as="sourcePoint" />
            <mxPoint x="258.23" y="249" as="targetPoint" />
          </mxGeometry>
        </mxCell>
        <mxCell id="_bQfAB4FE8FY6_FckcCM-54" value="STOREID" style="ellipse;whiteSpace=wrap;html=1;" parent="1" vertex="1">
          <mxGeometry x="178.54" y="90" width="90" height="40" as="geometry" />
        </mxCell>
        <mxCell id="_bQfAB4FE8FY6_FckcCM-55" value="" style="endArrow=none;html=1;rounded=0;entryX=0.5;entryY=0;entryDx=0;entryDy=0;exitX=0.5;exitY=1;exitDx=0;exitDy=0;" parent="1" target="2adWbE0rUEFOMJ6LFM2F-21" edge="1">
          <mxGeometry width="50" height="50" relative="1" as="geometry">
            <mxPoint x="219.04" y="130" as="sourcePoint" />
            <mxPoint x="228.04" y="169" as="targetPoint" />
          </mxGeometry>
        </mxCell>
        <mxCell id="_bQfAB4FE8FY6_FckcCM-56" value="" style="endArrow=none;html=1;rounded=0;entryX=0.5;entryY=0;entryDx=0;entryDy=0;exitX=0.5;exitY=1;exitDx=0;exitDy=0;" parent="1" source="_bQfAB4FE8FY6_FckcCM-60" target="2adWbE0rUEFOMJ6LFM2F-20" edge="1">
          <mxGeometry width="50" height="50" relative="1" as="geometry">
            <mxPoint x="200.56" y="364" as="sourcePoint" />
            <mxPoint x="177.56" y="390" as="targetPoint" />
          </mxGeometry>
        </mxCell>
        <mxCell id="_bQfAB4FE8FY6_FckcCM-57" value="" style="endArrow=none;html=1;rounded=0;entryX=1;entryY=0;entryDx=0;entryDy=0;exitX=1;exitY=1;exitDx=0;exitDy=0;" parent="1" source="_bQfAB4FE8FY6_FckcCM-43" edge="1">
          <mxGeometry width="50" height="50" relative="1" as="geometry">
            <mxPoint x="163" y="374" as="sourcePoint" />
            <mxPoint x="140" y="400" as="targetPoint" />
          </mxGeometry>
        </mxCell>
        <mxCell id="_bQfAB4FE8FY6_FckcCM-58" value="" style="endArrow=none;html=1;rounded=0;entryX=1;entryY=0;entryDx=0;entryDy=0;exitX=1;exitY=1;exitDx=0;exitDy=0;" parent="1" target="_bQfAB4FE8FY6_FckcCM-45" edge="1">
          <mxGeometry width="50" height="50" relative="1" as="geometry">
            <mxPoint x="140" y="440" as="sourcePoint" />
            <mxPoint x="117" y="466" as="targetPoint" />
          </mxGeometry>
        </mxCell>
        <mxCell id="_bQfAB4FE8FY6_FckcCM-59" value="" style="endArrow=none;html=1;rounded=0;entryX=1;entryY=0.5;entryDx=0;entryDy=0;exitX=1;exitY=1;exitDx=0;exitDy=0;" parent="1" target="_bQfAB4FE8FY6_FckcCM-44" edge="1">
          <mxGeometry width="50" height="50" relative="1" as="geometry">
            <mxPoint x="140" y="414" as="sourcePoint" />
            <mxPoint x="117" y="440" as="targetPoint" />
          </mxGeometry>
        </mxCell>
        <mxCell id="_bQfAB4FE8FY6_FckcCM-60" value="NAME" style="ellipse;whiteSpace=wrap;html=1;" parent="1" vertex="1">
          <mxGeometry x="170" y="320" width="90" height="40" as="geometry" />
        </mxCell>
        <mxCell id="_bQfAB4FE8FY6_FckcCM-61" value="TYPE" style="ellipse;whiteSpace=wrap;html=1;" parent="1" vertex="1">
          <mxGeometry x="170" y="472.04999999999995" width="90" height="40" as="geometry" />
        </mxCell>
        <mxCell id="_bQfAB4FE8FY6_FckcCM-62" value="" style="endArrow=none;html=1;rounded=0;entryX=0.5;entryY=0;entryDx=0;entryDy=0;exitX=0.5;exitY=1;exitDx=0;exitDy=0;" parent="1" source="2adWbE0rUEFOMJ6LFM2F-20" target="_bQfAB4FE8FY6_FckcCM-61" edge="1">
          <mxGeometry width="50" height="50" relative="1" as="geometry">
            <mxPoint x="150" y="450" as="sourcePoint" />
            <mxPoint x="133" y="476" as="targetPoint" />
          </mxGeometry>
        </mxCell>
        <mxCell id="_bQfAB4FE8FY6_FckcCM-65" value="" style="endArrow=none;html=1;rounded=0;exitX=0;exitY=0.5;exitDx=0;exitDy=0;entryX=1;entryY=0.5;entryDx=0;entryDy=0;" parent="1" source="2adWbE0rUEFOMJ6LFM2F-27" target="_bQfAB4FE8FY6_FckcCM-47" edge="1">
          <mxGeometry width="50" height="50" relative="1" as="geometry">
            <mxPoint x="110" y="610" as="sourcePoint" />
            <mxPoint x="160" y="560" as="targetPoint" />
          </mxGeometry>
        </mxCell>
        <mxCell id="_bQfAB4FE8FY6_FckcCM-67" value="" style="endArrow=none;html=1;rounded=0;exitX=0;exitY=0;exitDx=0;exitDy=0;entryX=1;entryY=1;entryDx=0;entryDy=0;" parent="1" source="2adWbE0rUEFOMJ6LFM2F-27" target="_bQfAB4FE8FY6_FckcCM-46" edge="1">
          <mxGeometry width="50" height="50" relative="1" as="geometry">
            <mxPoint x="160" y="660" as="sourcePoint" />
            <mxPoint x="123" y="660" as="targetPoint" />
          </mxGeometry>
        </mxCell>
        <mxCell id="_bQfAB4FE8FY6_FckcCM-68" value="" style="endArrow=none;html=1;rounded=0;entryX=1;entryY=0;entryDx=0;entryDy=0;exitX=0;exitY=1;exitDx=0;exitDy=0;" parent="1" source="2adWbE0rUEFOMJ6LFM2F-27" target="_bQfAB4FE8FY6_FckcCM-48" edge="1">
          <mxGeometry width="50" height="50" relative="1" as="geometry">
            <mxPoint x="170" y="670" as="sourcePoint" />
            <mxPoint x="133" y="670" as="targetPoint" />
          </mxGeometry>
        </mxCell>
        <mxCell id="_bQfAB4FE8FY6_FckcCM-74" value="1" style="text;html=1;align=center;verticalAlign=middle;resizable=0;points=[];autosize=1;strokeColor=none;fillColor=none;" parent="1" vertex="1">
          <mxGeometry x="455" y="378" width="30" height="30" as="geometry" />
        </mxCell>
        <mxCell id="_bQfAB4FE8FY6_FckcCM-75" value="N" style="text;html=1;align=center;verticalAlign=middle;resizable=0;points=[];autosize=1;strokeColor=none;fillColor=none;" parent="1" vertex="1">
          <mxGeometry x="450" y="195" width="30" height="30" as="geometry" />
        </mxCell>
        <mxCell id="_bQfAB4FE8FY6_FckcCM-76" value="N" style="text;html=1;align=center;verticalAlign=middle;resizable=0;points=[];autosize=1;strokeColor=none;fillColor=none;" parent="1" vertex="1">
          <mxGeometry x="500" y="378" width="30" height="30" as="geometry" />
        </mxCell>
        <mxCell id="_bQfAB4FE8FY6_FckcCM-78" value="M" style="text;html=1;align=center;verticalAlign=middle;resizable=0;points=[];autosize=1;strokeColor=none;fillColor=none;" parent="1" vertex="1">
          <mxGeometry x="515" y="398" width="30" height="30" as="geometry" />
        </mxCell>
        <mxCell id="_bQfAB4FE8FY6_FckcCM-79" value="N" style="text;html=1;align=center;verticalAlign=middle;resizable=0;points=[];autosize=1;strokeColor=none;fillColor=none;" parent="1" vertex="1">
          <mxGeometry x="705" y="398" width="30" height="30" as="geometry" />
        </mxCell>
        <mxCell id="_bQfAB4FE8FY6_FckcCM-80" value="M" style="text;html=1;align=center;verticalAlign=middle;resizable=0;points=[];autosize=1;strokeColor=none;fillColor=none;" parent="1" vertex="1">
          <mxGeometry x="520" y="428" width="30" height="30" as="geometry" />
        </mxCell>
        <mxCell id="_bQfAB4FE8FY6_FckcCM-81" value="N" style="text;html=1;align=center;verticalAlign=middle;resizable=0;points=[];autosize=1;strokeColor=none;fillColor=none;" parent="1" vertex="1">
          <mxGeometry x="720" y="595" width="30" height="30" as="geometry" />
        </mxCell>
        <mxCell id="_bQfAB4FE8FY6_FckcCM-82" value="M" style="text;html=1;align=center;verticalAlign=middle;resizable=0;points=[];autosize=1;strokeColor=none;fillColor=none;" parent="1" vertex="1">
          <mxGeometry x="475" y="438" width="30" height="30" as="geometry" />
        </mxCell>
        <mxCell id="_bQfAB4FE8FY6_FckcCM-83" value="N" style="text;html=1;align=center;verticalAlign=middle;resizable=0;points=[];autosize=1;strokeColor=none;fillColor=none;" parent="1" vertex="1">
          <mxGeometry x="475" y="598" width="30" height="30" as="geometry" />
        </mxCell>
        <mxCell id="_bQfAB4FE8FY6_FckcCM-84" value="1" style="text;html=1;align=center;verticalAlign=middle;resizable=0;points=[];autosize=1;strokeColor=none;fillColor=none;" parent="1" vertex="1">
          <mxGeometry x="427.29" y="438" width="30" height="30" as="geometry" />
        </mxCell>
        <mxCell id="_bQfAB4FE8FY6_FckcCM-86" value="M" style="text;html=1;align=center;verticalAlign=middle;resizable=0;points=[];autosize=1;strokeColor=none;fillColor=none;" parent="1" vertex="1">
          <mxGeometry x="406.25" y="412.05" width="30" height="30" as="geometry" />
        </mxCell>
        <mxCell id="_bQfAB4FE8FY6_FckcCM-87" value="M" style="text;html=1;align=center;verticalAlign=middle;resizable=0;points=[];autosize=1;strokeColor=none;fillColor=none;" parent="1" vertex="1">
          <mxGeometry x="410" y="382.05" width="30" height="30" as="geometry" />
        </mxCell>
        <mxCell id="_bQfAB4FE8FY6_FckcCM-88" value="N" style="text;html=1;align=center;verticalAlign=middle;resizable=0;points=[];autosize=1;strokeColor=none;fillColor=none;" parent="1" vertex="1">
          <mxGeometry x="220" y="610" width="30" height="30" as="geometry" />
        </mxCell>
        <mxCell id="_bQfAB4FE8FY6_FckcCM-89" value="N" style="text;html=1;align=center;verticalAlign=middle;resizable=0;points=[];autosize=1;strokeColor=none;fillColor=none;" parent="1" vertex="1">
          <mxGeometry x="220" y="420" width="30" height="30" as="geometry" />
        </mxCell>
        <mxCell id="_bQfAB4FE8FY6_FckcCM-90" value="N" style="text;html=1;align=center;verticalAlign=middle;resizable=0;points=[];autosize=1;strokeColor=none;fillColor=none;" parent="1" vertex="1">
          <mxGeometry x="220" y="180" width="30" height="30" as="geometry" />
        </mxCell>
        <mxCell id="9xfrjp00NwnyjT96S__e-2" value="U_id" style="ellipse;whiteSpace=wrap;html=1;" parent="1" vertex="1">
          <mxGeometry x="390" y="324.27" width="83.75" height="31.46" as="geometry" />
        </mxCell>
        <mxCell id="9xfrjp00NwnyjT96S__e-3" value="username" style="ellipse;whiteSpace=wrap;html=1;" parent="1" vertex="1">
          <mxGeometry x="485" y="324.27" width="90" height="40" as="geometry" />
        </mxCell>
        <mxCell id="9xfrjp00NwnyjT96S__e-4" value="password" style="ellipse;whiteSpace=wrap;html=1;" parent="1" vertex="1">
          <mxGeometry x="376.25" y="489.99999999999994" width="90" height="40" as="geometry" />
        </mxCell>
        <mxCell id="9xfrjp00NwnyjT96S__e-5" value="mail" style="ellipse;whiteSpace=wrap;html=1;" parent="1" vertex="1">
          <mxGeometry x="490" y="489.99999999999994" width="90" height="40" as="geometry" />
        </mxCell>
        <mxCell id="9xfrjp00NwnyjT96S__e-9" value="" style="endArrow=none;html=1;rounded=0;entryX=0.348;entryY=1.031;entryDx=0;entryDy=0;entryPerimeter=0;exitX=0.622;exitY=-0.021;exitDx=0;exitDy=0;exitPerimeter=0;" parent="1" source="-RTT7aDzXiRl8rfxtxoK-1" target="9xfrjp00NwnyjT96S__e-3" edge="1">
          <mxGeometry width="50" height="50" relative="1" as="geometry">
            <mxPoint x="491.25" y="391.46000000000004" as="sourcePoint" />
            <mxPoint x="541.25" y="341.46000000000004" as="targetPoint" />
          </mxGeometry>
        </mxCell>
        <mxCell id="9xfrjp00NwnyjT96S__e-10" value="" style="endArrow=none;html=1;rounded=0;exitX=0.618;exitY=0.995;exitDx=0;exitDy=0;exitPerimeter=0;entryX=0.181;entryY=0.007;entryDx=0;entryDy=0;entryPerimeter=0;" parent="1" source="9xfrjp00NwnyjT96S__e-2" target="-RTT7aDzXiRl8rfxtxoK-1" edge="1">
          <mxGeometry width="50" height="50" relative="1" as="geometry">
            <mxPoint x="440" y="390" as="sourcePoint" />
            <mxPoint x="490" y="340" as="targetPoint" />
          </mxGeometry>
        </mxCell>
        <mxCell id="9xfrjp00NwnyjT96S__e-11" value="" style="endArrow=none;html=1;rounded=0;exitX=0.5;exitY=0;exitDx=0;exitDy=0;entryX=0.898;entryY=0.986;entryDx=0;entryDy=0;entryPerimeter=0;" parent="1" target="-RTT7aDzXiRl8rfxtxoK-1" edge="1">
          <mxGeometry width="50" height="50" relative="1" as="geometry">
            <mxPoint x="530" y="490" as="sourcePoint" />
            <mxPoint x="573.59" y="440" as="targetPoint" />
          </mxGeometry>
        </mxCell>
        <mxCell id="9xfrjp00NwnyjT96S__e-12" value="" style="endArrow=none;html=1;rounded=0;exitX=0.5;exitY=0;exitDx=0;exitDy=0;" parent="1" source="9xfrjp00NwnyjT96S__e-4" target="-RTT7aDzXiRl8rfxtxoK-1" edge="1">
          <mxGeometry width="50" height="50" relative="1" as="geometry">
            <mxPoint x="490" y="520" as="sourcePoint" />
            <mxPoint x="540" y="470" as="targetPoint" />
          </mxGeometry>
        </mxCell>
        <mxCell id="9xfrjp00NwnyjT96S__e-14" value="m" style="text;html=1;align=center;verticalAlign=middle;resizable=0;points=[];autosize=1;strokeColor=none;fillColor=none;" parent="1" vertex="1">
          <mxGeometry x="705" y="178" width="30" height="30" as="geometry" />
        </mxCell>
        <mxCell id="9xfrjp00NwnyjT96S__e-17" value="" style="endArrow=none;html=1;rounded=0;exitX=1;exitY=1;exitDx=0;exitDy=0;entryX=0.074;entryY=0.748;entryDx=0;entryDy=0;entryPerimeter=0;" parent="1" source="2adWbE0rUEFOMJ6LFM2F-19" target="9xfrjp00NwnyjT96S__e-18" edge="1">
          <mxGeometry width="50" height="50" relative="1" as="geometry">
            <mxPoint x="618" y="561.9799999999999" as="sourcePoint" />
            <mxPoint x="675" y="543" as="targetPoint" />
          </mxGeometry>
        </mxCell>
        <mxCell id="9xfrjp00NwnyjT96S__e-18" value="RATING" style="ellipse;whiteSpace=wrap;html=1;" parent="1" vertex="1">
          <mxGeometry x="670" y="509.99999999999994" width="90" height="40" as="geometry" />
        </mxCell>
        <mxCell id="9xfrjp00NwnyjT96S__e-20" value="RATING" style="ellipse;whiteSpace=wrap;html=1;" parent="1" vertex="1">
          <mxGeometry x="615" y="338.00000000000006" width="90" height="40" as="geometry" />
        </mxCell>
        <mxCell id="9xfrjp00NwnyjT96S__e-21" value="" style="endArrow=none;html=1;rounded=0;exitX=0.5;exitY=0;exitDx=0;exitDy=0;entryX=0.316;entryY=0.982;entryDx=0;entryDy=0;entryPerimeter=0;" parent="1" source="2adWbE0rUEFOMJ6LFM2F-16" target="9xfrjp00NwnyjT96S__e-20" edge="1">
          <mxGeometry width="50" height="50" relative="1" as="geometry">
            <mxPoint x="550" y="480" as="sourcePoint" />
            <mxPoint x="640" y="380" as="targetPoint" />
          </mxGeometry>
        </mxCell>
        <mxCell id="9xfrjp00NwnyjT96S__e-22" value="" style="endArrow=none;html=1;rounded=0;entryX=0;entryY=0.5;entryDx=0;entryDy=0;" parent="1" source="2adWbE0rUEFOMJ6LFM2F-12" target="2adWbE0rUEFOMJ6LFM2F-51" edge="1">
          <mxGeometry width="50" height="50" relative="1" as="geometry">
            <mxPoint x="520" y="320" as="sourcePoint" />
            <mxPoint x="530" y="270" as="targetPoint" />
          </mxGeometry>
        </mxCell>
        <mxCell id="9xfrjp00NwnyjT96S__e-23" value="" style="endArrow=none;html=1;rounded=0;entryX=-0.058;entryY=0.487;entryDx=0;entryDy=0;entryPerimeter=0;" parent="1" edge="1">
          <mxGeometry width="50" height="50" relative="1" as="geometry">
            <mxPoint x="410" y="240" as="sourcePoint" />
            <mxPoint x="450" y="270" as="targetPoint" />
          </mxGeometry>
        </mxCell>
        <mxCell id="9xfrjp00NwnyjT96S__e-24" value="BIO" style="ellipse;whiteSpace=wrap;html=1;" parent="1" vertex="1">
          <mxGeometry x="338.54" y="208" width="90" height="40" as="geometry" />
        </mxCell>
        <mxCell id="9xfrjp00NwnyjT96S__e-26" value="" style="endArrow=none;html=1;rounded=0;entryX=0.5;entryY=0;entryDx=0;entryDy=0;" parent="1" target="2adWbE0rUEFOMJ6LFM2F-14" edge="1">
          <mxGeometry width="50" height="50" relative="1" as="geometry">
            <mxPoint x="315" y="370" as="sourcePoint" />
            <mxPoint x="480" y="430" as="targetPoint" />
          </mxGeometry>
        </mxCell>
        <mxCell id="9xfrjp00NwnyjT96S__e-27" value="register" style="ellipse;whiteSpace=wrap;html=1;" parent="1" vertex="1">
          <mxGeometry x="268.54" y="330" width="90" height="40" as="geometry" />
        </mxCell>
        <mxCell id="USuLQhx04jGiCGez3yF4-1" value="" style="endArrow=none;html=1;rounded=0;entryX=0.5;entryY=1;entryDx=0;entryDy=0;" edge="1" parent="1" target="2adWbE0rUEFOMJ6LFM2F-13">
          <mxGeometry width="50" height="50" relative="1" as="geometry">
            <mxPoint x="710" y="300" as="sourcePoint" />
            <mxPoint x="700" y="310" as="targetPoint" />
          </mxGeometry>
        </mxCell>
        <mxCell id="USuLQhx04jGiCGez3yF4-2" value="votes&amp;nbsp;" style="ellipse;whiteSpace=wrap;html=1;" vertex="1" parent="1">
          <mxGeometry x="712" y="284.27" width="90" height="40" as="geometry" />
        </mxCell>
      </root>
    </mxGraphModel>
  </diagram>
</mxfile>
